<svg id="Layer_1" enable-background="new 0 0 511.987 511.987" height="512" viewBox="0 0 511.987 511.987" width="512" xmlns="http://www.w3.org/2000/svg"><g id="XMLID_181_"><g fill="#e2e9ee"><path id="XMLID_1990_" d="m79.794 130.391h42.898v41.718h-42.898z" transform="matrix(.707 -.707 .707 .707 -77.296 115.89)"/><path id="XMLID_1989_" d="m389.885 129.801h41.718v42.898h-41.718z" transform="matrix(.707 -.707 .707 .707 13.354 334.74)"/><path id="XMLID_1961_" d="m225.243 62h61.5v48h-61.5z"/></g><path id="XMLID_1960_" d="m298.493 62h-85c-14.359 0-26-11.641-26-26 0-14.359 11.641-26 26-26h85c14.359 0 26 11.641 26 26 0 14.359-11.64 26-26 26z" fill="#a0c8ff"/><path id="XMLID_1959_" d="m66.017 156.977 40.954-40.954c7.732-7.732 7.732-20.268 0-28-7.732-7.732-20.268-7.732-28 0l-40.954 40.954c-7.732 7.732-7.732 20.268 0 28 7.732 7.732 20.268 7.732 28 0z" fill="#ff7d95"/><path id="XMLID_1958_" d="m445.97 156.977-40.954-40.954c-7.732-7.732-7.732-20.268 0-28 7.732-7.732 20.268-7.732 28 0l40.954 40.954c7.732 7.732 7.732 20.268 0 28-7.732 7.732-20.268 7.732-28 0z" fill="#ff7d95"/><circle id="XMLID_1045_" cx="255.993" cy="306" fill="#a0c8ff" r="196"/><circle id="XMLID_527_" cx="255.993" cy="306" fill="#fff" r="148"/><circle id="XMLID_1928_" cx="255.993" cy="306" fill="#ff7d95" r="22"/><g id="XMLID_264_"><path id="XMLID_346_" d="m255.993 148c-87.122 0-158 70.879-158 158s70.878 158 158 158c87.121 0 158-70.879 158-158s-70.878-158-158-158zm0 296c-76.093 0-138-61.906-138-138s61.907-138 138-138c76.094 0 138 61.906 138 138s-61.906 138-138 138z"/><path id="XMLID_347_" d="m256.123 212c2.63 0 5.2-1.07 7.07-2.931 1.859-1.859 2.93-4.439 2.93-7.069s-1.07-5.21-2.93-7.07-4.44-2.93-7.07-2.93c-2.64 0-5.21 1.069-7.07 2.93-1.86 1.86-2.93 4.44-2.93 7.07s1.07 5.21 2.93 7.069c1.86 1.861 4.44 2.931 7.07 2.931z"/><path id="XMLID_348_" d="m256.123 400c-2.63 0-5.21 1.069-7.08 2.93-1.86 1.86-2.92 4.44-2.92 7.07s1.06 5.21 2.92 7.069c1.87 1.86 4.45 2.931 7.08 2.931s5.21-1.07 7.07-2.931c1.859-1.859 2.93-4.439 2.93-7.069s-1.07-5.21-2.93-7.07c-1.86-1.861-4.44-2.93-7.07-2.93z"/><path id="XMLID_349_" d="m367.194 298.93c-1.86-1.86-4.44-2.93-7.07-2.93-2.64 0-5.22 1.069-7.07 2.93-1.87 1.86-2.93 4.43-2.93 7.07s1.06 5.21 2.93 7.069c1.86 1.86 4.431 2.931 7.07 2.931 2.63 0 5.21-1.07 7.07-2.931 1.859-1.859 2.93-4.439 2.93-7.069s-1.071-5.21-2.93-7.07z"/><path id="XMLID_350_" d="m152.123 296c-2.64 0-5.21 1.069-7.07 2.93-1.87 1.86-2.93 4.44-2.93 7.07s1.06 5.21 2.93 7.069c1.86 1.86 4.44 2.931 7.07 2.931s5.2-1.07 7.07-2.931c1.86-1.859 2.93-4.439 2.93-7.069s-1.07-5.21-2.93-7.07c-1.86-1.861-4.44-2.93-7.07-2.93z"/><path id="XMLID_351_" d="m182.583 369.54c-2.63 0-5.21 1.069-7.07 2.93-1.87 1.86-2.93 4.44-2.93 7.07s1.06 5.21 2.93 7.069c1.86 1.86 4.44 2.931 7.07 2.931s5.21-1.07 7.07-2.931c1.86-1.859 2.93-4.439 2.93-7.069s-1.07-5.21-2.93-7.07c-1.86-1.861-4.44-2.93-7.07-2.93z"/><path id="XMLID_352_" d="m329.663 369.54c-2.64 0-5.21 1.069-7.08 2.93-1.86 1.86-2.92 4.44-2.92 7.07s1.06 5.21 2.92 7.069c1.87 1.86 4.44 2.931 7.08 2.931 2.63 0 5.21-1.07 7.07-2.931 1.859-1.859 2.93-4.439 2.93-7.069s-1.07-5.21-2.93-7.07c-1.86-1.861-4.44-2.93-7.07-2.93z"/><path id="XMLID_353_" d="m182.583 222.46c-2.64 0-5.21 1.07-7.07 2.93s-2.93 4.44-2.93 7.07 1.07 5.21 2.93 7.07c1.86 1.859 4.44 2.93 7.07 2.93s5.21-1.07 7.07-2.93 2.93-4.44 2.93-7.07-1.07-5.21-2.93-7.07-4.44-2.93-7.07-2.93z"/><path id="XMLID_356_" d="m336.731 239.532c3.905-3.905 3.905-10.237 0-14.143-3.906-3.904-10.236-3.904-14.143 0l-52.097 52.097c-4.356-2.224-9.28-3.487-14.497-3.487-17.645 0-32 14.355-32 32s14.355 32 32 32 32-14.355 32-32c0-5.15-1.23-10.015-3.401-14.33zm-80.738 78.468c-6.617 0-12-5.383-12-12s5.383-12 12-12 12 5.383 12 12-5.382 12-12 12z"/><path id="XMLID_359_" d="m459.97 172.776c7.96 0 15.443-3.101 21.07-8.729 5.629-5.628 8.729-13.111 8.729-21.071 0-7.959-3.101-15.442-8.729-21.071l-40.953-40.953c-5.629-5.628-13.112-8.729-21.071-8.729-7.96 0-15.443 3.101-21.07 8.729-5.629 5.628-8.729 13.111-8.729 21.071 0 7.122 2.49 13.859 7.045 19.232l-18.525 18.525c-24.157-17.772-51.696-29.925-80.994-35.772v-32.008h1.75c19.851 0 36-16.149 36-36s-16.149-36-36-36h-85c-19.851 0-36 16.149-36 36s16.149 36 36 36h1.75v32.008c-29.298 5.848-56.836 18-80.994 35.772l-18.525-18.525c4.556-5.373 7.044-12.11 7.044-19.232 0-7.96-3.1-15.443-8.728-21.071s-13.111-8.729-21.071-8.729c-7.959 0-15.442 3.101-21.071 8.729l-40.953 40.953c-5.628 5.629-8.728 13.112-8.728 21.071 0 7.96 3.1 15.443 8.728 21.071s13.111 8.729 21.071 8.729c7.123 0 13.86-2.49 19.232-7.045l18.538 18.538c-59.063 80.541-52.216 194.635 20.543 267.395 33.069 33.069 76.835 54.064 123.236 59.118 7.4.807 14.821 1.205 22.229 1.205 38.341 0 76.304-10.686 108.839-30.913 4.69-2.915 6.129-9.082 3.213-13.772-2.914-4.689-9.08-6.129-13.772-3.212-73.714 45.826-168.132 34.902-229.603-26.568-72.521-72.522-72.521-190.522.001-263.043 35.13-35.131 81.839-54.479 131.521-54.479s96.391 19.348 131.521 54.479c61.471 61.471 72.396 155.887 26.569 229.603-2.916 4.69-1.478 10.856 3.213 13.771 4.69 2.918 10.856 1.478 13.771-3.213 24.135-38.821 34.686-85.369 29.707-131.068-3.912-35.917-17.383-70.252-38.605-99.273l18.568-18.567c5.374 4.555 12.111 7.044 19.233 7.044zm-47.882-77.682c1.851-1.851 4.312-2.87 6.929-2.87s5.078 1.02 6.929 2.871l40.953 40.953c1.852 1.851 2.871 4.312 2.871 6.929s-1.02 5.078-2.871 6.93c-1.851 1.851-4.312 2.87-6.929 2.87s-5.078-1.02-6.929-2.871l-40.953-40.953c-1.852-1.851-2.871-4.312-2.871-6.929s1.02-5.079 2.871-6.93zm-214.595-59.094c0-8.822 7.178-16 16-16h85c8.822 0 16 7.178 16 16s-7.178 16-16 16h-85c-8.822 0-16-7.178-16-16zm-145.476 116.776c-2.617 0-5.078-1.02-6.929-2.871s-2.87-4.312-2.87-6.929 1.02-5.078 2.871-6.929l40.953-40.953c1.851-1.852 4.312-2.871 6.929-2.871s5.078 1.02 6.929 2.871 2.87 4.312 2.87 6.929-1.02 5.078-2.871 6.929l-40.953 40.953c-1.851 1.852-4.312 2.871-6.929 2.871zm33.452-1.109 16.191-16.191 16.992 16.992c-2.832 2.54-13.656 13.364-16.189 16.192zm149.774-50.638v-29.029h41.5v29.029c-6.851-.681-13.774-1.029-20.75-1.029s-13.899.348-20.75 1.029zm174.275 67.637c-2.541-2.843-13.351-13.658-16.183-16.198l16.992-16.992 16.191 16.191z"/><path id="XMLID_365_" d="m394.583 434.59c-2.63 0-5.21 1.07-7.07 2.93-1.859 1.86-2.93 4.44-2.93 7.07 0 2.64 1.07 5.21 2.93 7.07 1.86 1.859 4.44 2.93 7.07 2.93s5.21-1.07 7.07-2.93c1.859-1.86 2.93-4.44 2.93-7.07s-1.07-5.21-2.93-7.07-4.44-2.93-7.07-2.93z"/></g></g></svg>