<svg id="Layer_1" enable-background="new 0 0 512 512" height="512" viewBox="0 0 512 512" width="512" xmlns="http://www.w3.org/2000/svg"><g id="XMLID_299_"><path id="XMLID_205_" d="m120.887 50.001h46.317v184.351h-46.317z" fill="#e2e9ee"/><path id="XMLID_204_" d="m344.795 50.001h46.317v184.351h-46.317z" fill="#e2e9ee"/><path id="XMLID_1546_" d="m144.046 233.907c-74.032 0-134.046 60.014-134.046 134.046s60.014 134.046 134.046 134.046 134.046-60.014 134.046-134.046-60.015-134.046-134.046-134.046zm0 223.908c-49.629 0-89.862-40.233-89.862-89.862s40.233-89.862 89.862-89.862 89.862 40.233 89.862 89.862-40.233 89.862-89.862 89.862z" fill="#80b6ff"/><path id="XMLID_30_" d="m367.954 233.907c-74.031 0-134.046 60.014-134.046 134.046s60.014 134.046 134.046 134.046 134.046-60.015 134.046-134.046-60.014-134.046-134.046-134.046zm0 223.908c-49.629 0-89.862-40.233-89.862-89.862s40.233-89.862 89.862-89.862 89.862 40.233 89.862 89.862-40.233 89.862-89.862 89.862z" fill="#80b6ff"/><path id="XMLID_1440_" d="m10 10.001h492v40h-492z" fill="#8aa8bd"/><g id="XMLID_1169_"><path id="XMLID_1170_" d="m268.092 367.953c0 36.256 19.706 69.726 51.429 87.349 1.538.854 3.204 1.26 4.848 1.26 3.514 0 6.923-1.856 8.75-5.146 2.683-4.828.943-10.916-3.885-13.598-25.377-14.098-41.142-40.869-41.142-69.866 0-44.036 35.826-79.862 79.862-79.862s79.862 35.826 79.862 79.862c0 28.997-15.764 55.767-41.141 69.865-4.828 2.682-6.567 8.771-3.885 13.598 2.682 4.828 8.771 6.566 13.598 3.885 31.722-17.624 51.428-51.093 51.428-87.349 0-55.064-44.798-99.862-99.862-99.862s-99.862 44.8-99.862 99.864z"/><path id="XMLID_1269_" d="m502 60.001c5.522 0 10-4.477 10-10v-40c0-5.523-4.478-10-10-10h-492c-5.522 0-10 4.477-10 10v40c0 5.523 4.478 10 10 10h100.888v167.764c-63.496 15.017-110.888 72.169-110.888 140.188 0 79.427 64.619 144.046 144.046 144.046 43.835 0 84.759-19.755 112.003-53.457 26.431 32.588 66.774 53.457 111.906 53.457 79.426 0 144.045-64.619 144.045-144.046 0-68.019-47.392-125.171-110.888-140.188v-167.764zm-482-40h472v20h-472zm236.049 257.363c-20.215-25.006-47.964-42.32-78.844-49.596v-167.767h157.59v167.765c-31.48 7.445-58.996 25.248-78.746 49.598zm-125.161-217.363h26.317v164.508c-4.35-.396-8.739-.602-13.159-.602-4.436 0-8.823.213-13.158.607zm13.158 431.998c-68.4 0-124.046-55.647-124.046-124.046s55.646-124.046 124.046-124.046c39.706 0 76.634 18.831 100.005 50.661-4.863 8.18-8.939 16.879-12.124 25.994-16.903-31.219-49.956-52.471-87.881-52.471-55.064 0-99.862 44.798-99.862 99.862s44.798 99.862 99.862 99.862c37.925 0 70.978-21.251 87.881-52.47 3.185 9.115 7.26 17.813 12.124 25.993-23.371 31.83-60.299 50.661-100.005 50.661zm79.862-124.046c0 44.036-35.826 79.862-79.862 79.862s-79.862-35.826-79.862-79.862 35.826-79.862 79.862-79.862 79.862 35.826 79.862 79.862zm268.092 0c0 68.399-55.646 124.046-124.046 124.046s-124.046-55.647-124.046-124.046 55.646-124.046 124.046-124.046 124.046 55.647 124.046 124.046zm-110.888-143.439c-4.335-.395-8.722-.607-13.158-.607-4.437 0-8.824.213-13.159.607v-164.513h26.317z"/><path id="XMLID_1282_" d="m367.95 447.81c-2.631 0-5.21 1.07-7.07 2.93s-2.93 4.44-2.93 7.07c0 2.64 1.069 5.22 2.93 7.07 1.86 1.87 4.439 2.94 7.07 2.94 2.64 0 5.21-1.07 7.069-2.94 1.87-1.86 2.931-4.43 2.931-7.07 0-2.63-1.061-5.2-2.931-7.07-1.859-1.86-4.429-2.93-7.069-2.93z"/></g></g></svg>