<svg id="Layer_1" enable-background="new 0 0 512 512" height="512" viewBox="0 0 512 512" width="512" xmlns="http://www.w3.org/2000/svg"><g id="XMLID_1_"><path id="XMLID_1409_" d="m172 232h168v48h-168z" fill="#e2e9ee"/><path id="XMLID_1408_" d="m10 232h44v48h-44z" fill="#80b6ff" transform="matrix(-1 0 0 -1 64 512)"/><path id="XMLID_1407_" d="m10 232.5h44v47h-44z" fill="#e2e9ee" transform="matrix(-1 0 0 -1 64 512)"/><path id="XMLID_1406_" d="m458 232.5h44v47h-44z" fill="#e2e9ee"/><path id="XMLID_1405_" d="m163 380h-41c-4.971 0-9-4.029-9-9v-230c0-4.971 4.029-9 9-9h41c4.971 0 9 4.029 9 9v230c0 4.971-4.029 9-9 9z" fill="#85e5f8"/><path id="XMLID_1404_" d="m104 348h-41c-4.971 0-9-4.029-9-9v-166c0-4.971 4.029-9 9-9h41c4.971 0 9 4.029 9 9v166c0 4.971-4.029 9-9 9z" fill="#66e0f7"/><path id="XMLID_1403_" d="m349 380h41c4.971 0 9-4.029 9-9v-230c0-4.971-4.029-9-9-9h-41c-4.971 0-9 4.029-9 9v230c0 4.971 4.029 9 9 9z" fill="#85e5f8"/><path id="XMLID_1402_" d="m408 348h41c4.971 0 9-4.029 9-9v-166c0-4.971-4.029-9-9-9h-41c-4.971 0-9 4.029-9 9v166c0 4.971 4.029 9 9 9z" fill="#66e0f7"/><g id="XMLID_3290_"><path id="XMLID_3293_" d="m502 222.5h-34v-49.5c0-10.477-8.523-19-19-19h-40v-13c0-10.477-8.523-19-19-19h-41c-10.477 0-19 8.523-19 19v81h-29.001c-5.523 0-10 4.477-10 10s4.477 10 10 10h29.001v28h-148v-28h29.001c5.523 0 10-4.477 10-10s-4.477-10-10-10h-29.001v-81c0-10.477-8.523-19-19-19h-41c-10.477 0-19 8.523-19 19v13h-40c-10.477 0-19 8.523-19 19v49h-34c-5.523 0-10 4.477-10 10v.5 47 .5c0 5.523 4.477 10 10 10h34v49c0 10.477 8.523 19 19 19h40v13c0 10.477 8.523 19 19 19h41c10.477 0 19-8.523 19-19v-81h148v81c0 10.477 8.523 19 19 19h41c10.477 0 19-8.523 19-19v-13h40c10.477 0 19-8.523 19-19v-49.5h34c5.523 0 10-4.477 10-10v-47c0-5.523-4.477-10-10-10zm-458 20v27h-24v-27zm20 95.5v-164h39v164zm98 32h-39v-228h39zm227 0h-39v-228h39zm59-32h-39v-164h39zm44-68.5h-24v-27h24z"/><path id="XMLID_3299_" d="m256.13 242c2.63 0 5.21-1.07 7.07-2.93s2.93-4.44 2.93-7.07-1.07-5.21-2.93-7.07-4.44-2.93-7.07-2.93c-2.64 0-5.21 1.07-7.07 2.93s-2.93 4.44-2.93 7.07 1.07 5.21 2.93 7.07 4.44 2.93 7.07 2.93z"/></g></g></svg>